<svg width="1387" height="536" viewBox="0 0 1387 536" fill="none" xmlns="http://www.w3.org/2000/svg">
<path d="M74.5 355C33.9644 355 1 322.036 1 281.5C1 240.964 33.9644 208 74.5 208C115.036 208 148 240.964 148 281.5C148 322.259 115.038 355 74.5 355Z" stroke="url(#paint0_linear_62_2)" stroke-width="2"/>
<path d="M1384.28 401.729L1384.26 401.746L1384.24 401.765L1345.41 440.639C1342.56 443.494 1342.56 448.506 1345.41 451.361L1384.24 490.235C1386.31 492.309 1386.31 496.056 1384.24 498.13L1348.97 533.445C1346.9 535.518 1343.15 535.518 1341.08 533.445L1302.25 494.571C1299.4 491.716 1294.39 491.716 1291.54 494.571L1252.71 533.445C1250.64 535.518 1246.9 535.518 1244.83 533.445L1209.55 498.13C1207.48 496.056 1207.48 492.309 1209.55 490.235L1248.38 451.361C1251.23 448.506 1251.23 443.494 1248.38 440.639L1209.55 401.765C1207.48 399.691 1207.48 395.944 1209.55 393.87L1244.83 358.555C1246.9 356.482 1250.64 356.482 1252.71 358.555L1291.54 397.429C1294.39 400.284 1299.4 400.284 1302.25 397.429L1341.08 358.555C1343.15 356.482 1346.9 356.482 1348.97 358.555L1384.24 393.87C1386.61 396.239 1386.55 399.682 1384.28 401.729Z" stroke="url(#paint1_linear_62_2)" stroke-width="2"/>
<path d="M1273.24 2.5606L1273.24 2.5531C1274.46 0.519823 1277.33 0.436563 1278.77 2.57809L1343.46 108.631L1343.47 108.639C1344.91 110.947 1343.27 114 1340.7 114H1276H1211.3C1208.74 114 1207.08 111.125 1208.54 108.623L1273.24 2.5606Z" stroke="url(#paint2_linear_62_2)" stroke-width="2"/>
<defs>
<linearGradient id="paint0_linear_62_2" x1="0" y1="281.5" x2="149" y2="281.5" gradientUnits="userSpaceOnUse">
<stop stop-color="#F7941D"/>
<stop offset="1" stop-color="#27AAE1"/>
</linearGradient>
<linearGradient id="paint1_linear_62_2" x1="1207" y1="446" x2="1387" y2="446" gradientUnits="userSpaceOnUse">
<stop stop-color="#F7941D"/>
<stop offset="1" stop-color="#27AAE1"/>
</linearGradient>
<linearGradient id="paint2_linear_62_2" x1="1207" y1="57.5" x2="1345" y2="57.5" gradientUnits="userSpaceOnUse">
<stop stop-color="#F7941D"/>
<stop offset="1" stop-color="#27AAE1"/>
</linearGradient>
</defs>
</svg>
